  0
SECTION
  2
HEADER
  9
$ACADVER
  1
AC1015
  9
$ACADMAINTVER
 70
     6
  9
$DWGCODEPAGE
  3
ANSI_1252
  9
$INSBASE
 10
0.0
 20
0.0
 30
0.0
  9
$EXTMIN
 10
-0.7088331498
 20
-0.6838374689
 30
0.0
  9
$EXTMAX
 10
0.7084835254
 20
0.6794009541
 30
0.0
  9
$LIMMIN
 10
0.0
 20
0.0
  9
$LIMMAX
 10
12.0
 20
9.0
  9
$ORTHOMODE
 70
     0
  9
$REGENMODE
 70
     1
  9
$FILLMODE
 70
     1
  9
$QTEXTMODE
 70
     0
  9
$MIRRTEXT
 70
     1
  9
$LTSCALE
 40
1.0
  9
$ATTMODE
 70
     1
  9
$TEXTSIZE
 40
0.1377952756
  9
$TRACEWID
 40
0.05
  9
$TEXTSTYLE
  7
Standard
  9
$CLAYER
  8
0
  9
$CELTYPE
  6
ByLayer
  9
$CECOLOR
 62
   256
  9
$CELTSCALE
 40
1.0
  9
$DISPSILH
 70
     0
  9
$DIMSCALE
 40
1.0
  9
$DIMASZ
 40
0.13
  9
$DIMEXO
 40
0.0
  9
$DIMDLI
 40
0.38
  9
$DIMRND
 40
0.0
  9
$DIMDLE
 40
0.0
  9
$DIMEXE
 40
0.0393700787
  9
$DIMTP
 40
0.0
  9
$DIMTM
 40
0.0
  9
$DIMTXT
 40
0.1377952756
  9
$DIMCEN
 40
0.09
  9
$DIMTSZ
 40
0.0
  9
$DIMTOL
 70
     0
  9
$DIMLIM
 70
     0
  9
$DIMTIH
 70
     1
  9
$DIMTOH
 70
     1
  9
$DIMSE1
 70
     0
  9
$DIMSE2
 70
     0
  9
$DIMTAD
 70
     1
  9
$DIMZIN
 70
     1
  9
$DIMBLK
  1

  9
$DIMASO
 70
     1
  9
$DIMSHO
 70
     1
  9
$DIMPOST
  1

  9
$DIMAPOST
  1

  9
$DIMALT
 70
     0
  9
$DIMALTD
 70
     2
  9
$DIMALTF
 40
25.4
  9
$DIMLFAC
 40
1.0
  9
$DIMTOFL
 70
     0
  9
$DIMTVP
 40
0.0
  9
$DIMTIX
 70
     0
  9
$DIMSOXD
 70
     0
  9
$DIMSAH
 70
     0
  9
$DIMBLK1
  1

  9
$DIMBLK2
  1

  9
$DIMSTYLE
  2
Standard
  9
$DIMCLRD
 70
     0
  9
$DIMCLRE
 70
     0
  9
$DIMCLRT
 70
     0
  9
$DIMTFAC
 40
1.0
  9
$DIMGAP
 40
0.06
  9
$DIMJUST
 70
     0
  9
$DIMSD1
 70
     0
  9
$DIMSD2
 70
     0
  9
$DIMTOLJ
 70
     1
  9
$DIMTZIN
 70
     1
  9
$DIMALTZ
 70
     0
  9
$DIMALTTZ
 70
     0
  9
$DIMUPT
 70
     0
  9
$DIMDEC
 70
     2
  9
$DIMTDEC
 70
     2
  9
$DIMALTU
 70
     2
  9
$DIMALTTD
 70
     2
  9
$DIMTXSTY
  7
Standard
  9
$DIMAUNIT
 70
     0
  9
$DIMADEC
 70
     2
  9
$DIMALTRND
 40
0.0
  9
$DIMAZIN
 70
     0
  9
$DIMDSEP
 70
    46
  9
$DIMATFIT
 70
     3
  9
$DIMFRAC
 70
     0
  9
$DIMLDRBLK
  1

  9
$DIMLUNIT
 70
     2
  9
$DIMLWD
 70
    -2
  9
$DIMLWE
 70
    -2
  9
$DIMTMOVE
 70
     0
  9
$LUNITS
 70
     2
  9
$LUPREC
 70
     4
  9
$SKETCHINC
 40
0.1
  9
$FILLETRAD
 40
0.5
  9
$AUNITS
 70
     0
  9
$AUPREC
 70
     2
  9
$MENU
  1
.
  9
$ELEVATION
 40
0.0
  9
$PELEVATION
 40
0.0
  9
$THICKNESS
 40
0.0
  9
$LIMCHECK
 70
     0
  9
$CHAMFERA
 40
0.0
  9
$CHAMFERB
 40
0.0
  9
$CHAMFERC
 40
0.0
  9
$CHAMFERD
 40
0.0
  9
$SKPOLY
 70
     0
  9
$TDCREATE
 40
2459342.311339734
  9
$TDUCREATE
 40
2459342.603006401
  9
$TDUPDATE
 40
2459342.311367188
  9
$TDUUPDATE
 40
2459342.603033854
  9
$TDINDWG
 40
0.0000000116
  9
$TDUSRTIMER
 40
0.0000000116
  9
$USRTIMER
 70
     1
  9
$ANGBASE
 50
0.0
  9
$ANGDIR
 70
     0
  9
$PDMODE
 70
     0
  9
$PDSIZE
 40
-1.0
  9
$PLINEWID
 40
0.0
  9
$SPLFRAME
 70
     0
  9
$SPLINETYPE
 70
     6
  9
$SPLINESEGS
 70
     8
  9
$HANDSEED
  5
92
  9
$SURFTAB1
 70
     6
  9
$SURFTAB2
 70
     6
  9
$SURFTYPE
 70
     6
  9
$SURFU
 70
     6
  9
$SURFV
 70
     6
  9
$UCSBASE
  2

  9
$UCSNAME
  2

  9
$UCSORG
 10
0.0
 20
0.0
 30
0.0
  9
$UCSXDIR
 10
1.0
 20
0.0
 30
0.0
  9
$UCSYDIR
 10
0.0
 20
1.0
 30
0.0
  9
$UCSORTHOREF
  2

  9
$UCSORTHOVIEW
 70
     0
  9
$UCSORGTOP
 10
0.0
 20
0.0
 30
0.0
  9
$UCSORGBOTTOM
 10
0.0
 20
0.0
 30
0.0
  9
$UCSORGLEFT
 10
0.0
 20
0.0
 30
0.0
  9
$UCSORGRIGHT
 10
0.0
 20
0.0
 30
0.0
  9
$UCSORGFRONT
 10
0.0
 20
0.0
 30
0.0
  9
$UCSORGBACK
 10
0.0
 20
0.0
 30
0.0
  9
$PUCSBASE
  2

  9
$PUCSNAME
  2

  9
$PUCSORG
 10
0.0
 20
0.0
 30
0.0
  9
$PUCSXDIR
 10
1.0
 20
0.0
 30
0.0
  9
$PUCSYDIR
 10
0.0
 20
1.0
 30
0.0
  9
$PUCSORTHOREF
  2

  9
$PUCSORTHOVIEW
 70
     0
  9
$PUCSORGTOP
 10
0.0
 20
0.0
 30
0.0
  9
$PUCSORGBOTTOM
 10
0.0
 20
0.0
 30
0.0
  9
$PUCSORGLEFT
 10
0.0
 20
0.0
 30
0.0
  9
$PUCSORGRIGHT
 10
0.0
 20
0.0
 30
0.0
  9
$PUCSORGFRONT
 10
0.0
 20
0.0
 30
0.0
  9
$PUCSORGBACK
 10
0.0
 20
0.0
 30
0.0
  9
$USERI1
 70
     0
  9
$USERI2
 70
     0
  9
$USERI3
 70
     0
  9
$USERI4
 70
     0
  9
$USERI5
 70
     0
  9
$USERR1
 40
0.0
  9
$USERR2
 40
0.0
  9
$USERR3
 40
0.0
  9
$USERR4
 40
0.0
  9
$USERR5
 40
0.0
  9
$WORLDVIEW
 70
     1
  9
$SHADEDGE
 70
     3
  9
$SHADEDIF
 70
    70
  9
$TILEMODE
 70
     1
  9
$MAXACTVP
 70
    64
  9
$PINSBASE
 10
0.0
 20
0.0
 30
0.0
  9
$PLIMCHECK
 70
     0
  9
$PEXTMIN
 10
1.0000000000E+20
 20
1.0000000000E+20
 30
1.0000000000E+20
  9
$PEXTMAX
 10
-1.0000000000E+20
 20
-1.0000000000E+20
 30
-1.0000000000E+20
  9
$PLIMMIN
 10
0.0
 20
0.0
  9
$PLIMMAX
 10
12.0
 20
9.0
  9
$UNITMODE
 70
     0
  9
$VISRETAIN
 70
     1
  9
$PLINEGEN
 70
     0
  9
$PSLTSCALE
 70
     1
  9
$TREEDEPTH
 70
  3020
  9
$CMLSTYLE
  2
Standard
  9
$CMLJUST
 70
     0
  9
$CMLSCALE
 40
1.0
  9
$PROXYGRAPHICS
 70
     1
  9
$MEASUREMENT
 70
     0
  9
$CELWEIGHT
370
    -1
  9
$ENDCAPS
280
     0
  9
$JOINSTYLE
280
     0
  9
$LWDISPLAY
290
     1
  9
$INSUNITS
 70
     1
  9
$HYPERLINKBASE
  1

  9
$STYLESHEET
  1

  9
$XEDIT
290
     1
  9
$CEPSNTYPE
380
     0
  9
$PSTYLEMODE
290
     1
  9
$FINGERPRINTGUID
  2
{9d6001f0-39e5-434b-aced-ca29784b6904}
  9
$VERSIONGUID
  2
{FAEB1C32-E019-11D5-929B-00C0DF256EC4}
  9
$EXTNAMES
290
     1
  9
$PSVPSCALE
 40
0.0
  9
$OLESTARTUP
290
     0
  0
ENDSEC
  0
SECTION
  2
CLASSES
  0
CLASS
  1
ACDBDICTIONARYWDFLT
  2
AcDbDictionaryWithDefault
  3
ObjectDBX Classes
 90
        0
280
     0
281
     0
  0
CLASS
  1
VISUALSTYLE
  2
AcDbVisualStyle
  3
ObjectDBX Classes
 90
     4095
280
     0
281
     0
  0
CLASS
  1
MATERIAL
  2
AcDbMaterial
  3
ObjectDBX Classes
 90
     1153
280
     0
281
     0
  0
CLASS
  1
SCALE
  2
AcDbScale
  3
ObjectDBX Classes
 90
     1153
280
     0
281
     0
  0
CLASS
  1
TABLESTYLE
  2
AcDbTableStyle
  3
ObjectDBX Classes
 90
     4095
280
     0
281
     0
  0
CLASS
  1
MLEADERSTYLE
  2
AcDbMLeaderStyle
  3
ACDB_MLEADERSTYLE_CLASS
 90
     4095
280
     0
281
     0
  0
CLASS
  1
SUN
  2
AcDbSun
  3
SCENEOE
 90
     1153
280
     0
281
     0
  0
CLASS
  1
ACDBPLACEHOLDER
  2
AcDbPlaceHolder
  3
ObjectDBX Classes
 90
        0
280
     0
281
     0
  0
CLASS
  1
LAYOUT
  2
AcDbLayout
  3
ObjectDBX Classes
 90
        0
280
     0
281
     0
  0
ENDSEC
  0
SECTION
  2
TABLES
  0
TABLE
  2
VPORT
  5
8
330
0
100
AcDbSymbolTable
 70
     1
  0
VPORT
  5
29
330
8
100
AcDbSymbolTableRecord
100
AcDbViewportTableRecord
  2
*Active
 70
     0
 10
0.0
 20
0.0
 11
1.0
 21
1.0
 12
-0.0001748122
 22
-0.0022182574
 13
0.0
 23
0.0
 14
0.5
 24
0.5
 15
0.5
 25
0.5
 16
0.0
 26
0.0
 36
1.0
 17
0.0
 27
0.0
 37
0.0
 40
1.3905031915
 41
1.0396689612
 42
50.0
 43
0.0
 44
0.0
 50
0.0
 51
0.0
 71
     0
 72
   100
 73
     1
 74
     3
 75
     0
 76
     0
 77
     0
 78
     0
281
     0
 65
     1
110
0.0
120
0.0
130
0.0
111
1.0
121
0.0
131
0.0
112
0.0
122
1.0
132
0.0
 79
     0
146
0.0
  0
ENDTAB
  0
TABLE
  2
LTYPE
  5
5
330
0
100
AcDbSymbolTable
 70
     6
  0
LTYPE
  5
14
330
5
100
AcDbSymbolTableRecord
100
AcDbLinetypeTableRecord
  2
ByBlock
 70
     0
  3

 72
    65
 73
     0
 40
0.0
  0
LTYPE
  5
15
330
5
100
AcDbSymbolTableRecord
100
AcDbLinetypeTableRecord
  2
ByLayer
 70
     0
  3

 72
    65
 73
     0
 40
0.0
  0
LTYPE
  5
16
330
5
100
AcDbSymbolTableRecord
100
AcDbLinetypeTableRecord
  2
Continuous
 70
     0
  3
Solid line
 72
    65
 73
     0
 40
0.0
  0
LTYPE
  5
6E
330
5
100
AcDbSymbolTableRecord
100
AcDbLinetypeTableRecord
  2
HIDDEN
 70
     0
  3
Hidden __ __ __ __ __ __ __ __ __ __ __ __ __ __
 72
    65
 73
     2
 40
0.075
 49
0.05
 74
     0
 49
-0.025
 74
     0
  0
LTYPE
  5
6F
330
5
100
AcDbSymbolTableRecord
100
AcDbLinetypeTableRecord
  2
PHANTOM
 70
     0
  3
Phantom ______  __  __  ______  __  __  ______
 72
    65
 73
     6
 40
0.5
 49
0.25
 74
     0
 49
-0.05
 74
     0
 49
0.05
 74
     0
 49
-0.05
 74
     0
 49
0.05
 74
     0
 49
-0.05
 74
     0
  0
LTYPE
  5
70
330
5
100
AcDbSymbolTableRecord
100
AcDbLinetypeTableRecord
  2
CENTER
 70
     0
  3
Center ____ _ ____ _ ____ _ ____ _ ____ _ ____
 72
    65
 73
     4
 40
0.4
 49
0.25
 74
     0
 49
-0.05
 74
     0
 49
0.05
 74
     0
 49
-0.05
 74
     0
  0
LTYPE
  5
71
330
5
100
AcDbSymbolTableRecord
100
AcDbLinetypeTableRecord
  2
CENTERX2
 70
     0
  3
Center (2x) ________  __  ________  __  _____
 72
    65
 73
     4
 40
0.8
 49
0.5
 74
     0
 49
-0.1
 74
     0
 49
0.1
 74
     0
 49
-0.1
 74
     0
  0
LTYPE
  5
72
330
5
100
AcDbSymbolTableRecord
100
AcDbLinetypeTableRecord
  2
DOT2
 70
     0
  3
Dot (.5x) ........................................
 72
    65
 73
     2
 40
0.025
 49
0.0
 74
     0
 49
-0.025
 74
     0
  0
ENDTAB
  0
TABLE
  2
LAYER
  5
2
330
0
100
AcDbSymbolTable
 70
     1
  0
LAYER
  5
10
330
2
100
AcDbSymbolTableRecord
100
AcDbLayerTableRecord
  2
0
 70
     0
 62
     7
  6
Continuous
370
    -3
390
F
  0
ENDTAB
  0
TABLE
  2
STYLE
  5
3
330
0
100
AcDbSymbolTable
 70
     2
  0
STYLE
  5
11
330
3
100
AcDbSymbolTableRecord
100
AcDbTextStyleTableRecord
  2
Standard
 70
     0
 40
0.0
 41
1.0
 50
0.0
 71
     0
 42
0.1377952756
  3
txt
  4

  0
STYLE
  5
8E
330
3
100
AcDbSymbolTableRecord
100
AcDbTextStyleTableRecord
  2
SLDTEXTSTYLE0
 70
     0
 40
0.0
 41
0.7
 50
0.0
 71
     0
 42
0.1377952756
  3
TXT
  4

  0
ENDTAB
  0
TABLE
  2
VIEW
  5
6
330
0
100
AcDbSymbolTable
 70
     0
  0
ENDTAB
  0
TABLE
  2
UCS
  5
7
330
0
100
AcDbSymbolTable
 70
     0
  0
ENDTAB
  0
TABLE
  2
APPID
  5
9
330
0
100
AcDbSymbolTable
 70
     1
  0
APPID
  5
12
330
9
100
AcDbSymbolTableRecord
100
AcDbRegAppTableRecord
  2
ACAD
 70
     0
  0
ENDTAB
  0
TABLE
  2
DIMSTYLE
  5
A
330
0
100
AcDbSymbolTable
 70
     1
100
AcDbDimStyleTable
  0
DIMSTYLE
105
27
330
A
100
AcDbSymbolTableRecord
100
AcDbDimStyleTableRecord
  2
Standard
 70
     0
178
     0
340
11
  0
ENDTAB
  0
TABLE
  2
BLOCK_RECORD
  5
1
330
0
100
AcDbSymbolTable
 70
     1
  0
BLOCK_RECORD
  5
1F
330
1
100
AcDbSymbolTableRecord
100
AcDbBlockTableRecord
  2
*Model_Space
340
22
  0
BLOCK_RECORD
  5
1B
330
1
100
AcDbSymbolTableRecord
100
AcDbBlockTableRecord
  2
*Paper_Space
340
1E
  0
BLOCK_RECORD
  5
23
330
1
100
AcDbSymbolTableRecord
100
AcDbBlockTableRecord
  2
*Paper_Space0
340
26
  0
ENDTAB
  0
ENDSEC
  0
SECTION
  2
BLOCKS
  0
BLOCK
  5
20
330
1F
100
AcDbEntity
  8
0
100
AcDbBlockBegin
  2
*Model_Space
 70
     0
 10
0.0
 20
0.0
 30
0.0
  3
*Model_Space
  1

  0
ENDBLK
  5
21
330
1F
100
AcDbEntity
  8
0
100
AcDbBlockEnd
  0
BLOCK
  5
1C
330
1B
100
AcDbEntity
 67
     1
  8
0
100
AcDbBlockBegin
  2
*Paper_Space
 70
     0
 10
0.0
 20
0.0
 30
0.0
  3
*Paper_Space
  1

  0
ENDBLK
  5
1D
330
1B
100
AcDbEntity
 67
     1
  8
0
100
AcDbBlockEnd
  0
BLOCK
  5
24
330
23
100
AcDbEntity
  8
0
100
AcDbBlockBegin
  2
*Paper_Space0
 70
     0
 10
0.0
 20
0.0
 30
0.0
  3
*Paper_Space0
  1

  0
ENDBLK
  5
25
330
23
100
AcDbEntity
  8
0
100
AcDbBlockEnd
  0
ENDSEC
  0
SECTION
  2
ENTITIES
  0
LWPOLYLINE
  5
75
330
1F
100
AcDbEntity
  8
0
  6
Continuous
 62
     7
370
    25
100
AcDbPolyline
 90
       71
 70
   128
 43
0.0
 10
0.7084835254
 20
-0.0037274088
 10
0.7077542857
 20
0.0263321254
 10
0.7056395837
 20
0.0563401133
 10
0.7021435592
 20
0.0862378127
 10
0.6972730556
 20
0.1159666976
 10
0.6910376073
 20
0.1454685722
 10
0.6834494204
 20
0.1746856853
 10
0.6745233492
 20
0.2035608429
 10
0.6642768669
 20
0.2320375206
 10
0.6527300314
 20
0.260059974
 10
0.6399054462
 20
0.2875733478
 10
0.6258282161
 20
0.3145237832
 10
0.6105258978
 20
0.3408585236
 10
0.5940284464
 20
0.3665260174
 10
0.5763681564
 20
0.3914760192
 10
0.5575795987
 20
0.4156596885
 10
0.5376995528
 20
0.4390296843
 10
0.5167669347
 20
0.4615402589
 10
0.4948227211
 20
0.4831473468
 10
0.4719098688
 20
0.5038086511
 10
0.4480732307
 20
0.5234837263
 10
0.4233594683
 20
0.5421340575
 10
0.3978169598
 20
0.5597231358
 10
0.3714957059
 20
0.5762165298
 10
0.3444472318
 20
0.5915819529
 10
0.316724486
 20
0.6057893265
 10
0.2883817371
 20
0.6188108391
 10
0.2594744675
 20
0.6306210004
 10
0.2300592644
 20
0.6411966915
 10
0.2001937095
 20
0.6505172099
 10
0.169936266
 20
0.6585643104
 10
0.1393461643
 20
0.6653222403
 10
0.1084832859
 20
0.6707777706
 10
0.0774080464
 20
0.674920222
 10
0.046181277
 20
0.6777414854
 10
0.0148641056
 20
0.6792360379
 10
-0.016482163
 20
0.6794009541
 10
-0.0477961669
 20
0.6782359109
 10
-0.0790166077
 20
0.6757431891
 10
-0.1100823697
 20
0.6719276683
 10
-0.1409326403
 20
0.6667968175
 10
-0.1715070287
 20
0.6603606806
 10
-0.201745684
 20
0.6526318567
 10
-0.2315894126
 20
0.6436254753
 10
-0.2609797941
 20
0.6333591668
 10
-0.2898592954
 20
0.621853028
 10
-0.3181713835
 20
0.6091295827
 10
-0.3458606361
 20
0.5952137376
 10
-0.3728728504
 20
0.5801327336
 10
-0.3991551485
 20
0.5639160926
 10
-0.4246560817
 20
0.5465955594
 10
-0.4493257306
 20
0.5282050397
 10
-0.4731158034
 20
0.5087805338
 10
-0.4959797297
 20
0.4883600662
 10
-0.5178727524
 20
0.4669836107
 10
-0.5387520149
 20
0.444693013
 10
-0.5585766451
 20
0.4215319077
 10
-0.5773078352
 20
0.397545634
 10
-0.5949089181
 20
0.372781146
 10
-0.6113454388
 20
0.3472869214
 10
-0.6265852222
 20
0.3211128664
 10
-0.6405984356
 20
0.2943102178
 10
-0.6533576474
 20
0.2669314432
 10
-0.664837881
 20
0.2390301377
 10
-0.6750166632
 20
0.2106609196
 10
-0.6838740686
 20
0.1818793227
 10
-0.6913927583
 20
0.1527416886
 10
-0.6975580143
 20
0.1233050554
 10
-0.7023577677
 20
0.0936270468
 10
-0.7057826228
 20
0.0637657589
 10
-0.7064710788
 20
0.0556742246
  0
LWPOLYLINE
  5
76
330
1F
100
AcDbEntity
  8
0
  6
Continuous
 62
     7
370
    25
100
AcDbPolyline
 90
        3
 70
   128
 43
0.0
 10
0.7064710788
 20
-0.0556742246
 10
0.7078258753
 20
-0.0337796465
 10
0.7084835254
 20
-0.0037274088
  0
LWPOLYLINE
  5
77
330
1F
100
AcDbEntity
  8
0
  6
Continuous
 62
     7
370
    25
100
AcDbPolyline
 90
      143
 70
   128
 43
0.0
 10
0.708133901
 20
-0.0081639237
 10
0.7074046613
 20
0.0218956105
 10
0.7052899593
 20
0.0519035984
 10
0.7017939348
 20
0.0818012978
 10
0.6969234312
 20
0.1115301827
 10
0.6906879829
 20
0.1410320573
 10
0.683099796
 20
0.1702491704
 10
0.6741737248
 20
0.199124328
 10
0.6639272425
 20
0.2276010057
 10
0.652380407
 20
0.2556234591
 10
0.6395558218
 20
0.2831368329
 10
0.6254785917
 20
0.3100872683
 10
0.6101762734
 20
0.3364220087
 10
0.593678822
 20
0.3620895025
 10
0.576018532
 20
0.3870395044
 10
0.5572299743
 20
0.4112231736
 10
0.5373499284
 20
0.4345931694
 10
0.5164173103
 20
0.457103744
 10
0.4944730967
 20
0.4787108319
 10
0.4715602444
 20
0.4993721362
 10
0.4477236063
 20
0.5190472114
 10
0.4230098439
 20
0.5376975426
 10
0.3974673354
 20
0.5552866209
 10
0.3711460815
 20
0.5717800149
 10
0.3440976074
 20
0.587145438
 10
0.3163748616
 20
0.6013528116
 10
0.2880321127
 20
0.6143743242
 10
0.2591248431
 20
0.6261844855
 10
0.22970964
 20
0.6367601766
 10
0.1998440851
 20
0.646080695
 10
0.1695866416
 20
0.6541277955
 10
0.1389965399
 20
0.6608857254
 10
0.1081336615
 20
0.6663412557
 10
0.077058422
 20
0.6704837071
 10
0.0458316526
 20
0.6733049705
 10
0.0145144812
 20
0.674799523
 10
-0.0168317874
 20
0.6749644392
 10
-0.0481457913
 20
0.673799396
 10
-0.0793662321
 20
0.6713066742
 10
-0.1104319941
 20
0.6674911534
 10
-0.1412822647
 20
0.6623603026
 10
-0.1718566531
 20
0.6559241657
 10
-0.2020953084
 20
0.6481953418
 10
-0.231939037
 20
0.6391889604
 10
-0.2613294185
 20
0.6289226519
 10
-0.2902089198
 20
0.6174165131
 10
-0.3185210079
 20
0.6046930678
 10
-0.3462102605
 20
0.5907772227
 10
-0.3732224748
 20
0.5756962187
 10
-0.3995047729
 20
0.5594795777
 10
-0.4250057061
 20
0.5421590445
 10
-0.449675355
 20
0.5237685248
 10
-0.4734654278
 20
0.5043440189
 10
-0.4963293541
 20
0.4839235513
 10
-0.5182223768
 20
0.4625470958
 10
-0.5391016393
 20
0.4402564981
 10
-0.5589262695
 20
0.4170953928
 10
-0.5776574596
 20
0.3931091191
 10
-0.5952585425
 20
0.3683446311
 10
-0.6116950632
 20
0.3428504065
 10
-0.6269348466
 20
0.3166763515
 10
-0.64094806
 20
0.2898737029
 10
-0.6537072718
 20
0.2624949283
 10
-0.6651875054
 20
0.2345936228
 10
-0.6753662876
 20
0.2062244047
 10
-0.684223693
 20
0.1774428078
 10
-0.6917423827
 20
0.1483051737
 10
-0.6979076387
 20
0.1188685405
 10
-0.7027073921
 20
0.0891905319
 10
-0.7061322472
 20
0.059329244
 10
-0.7081754997
 20
0.0293431316
 10
-0.7088331498
 20
-0.0007091061
 10
-0.7081039101
 20
-0.0307686403
 10
-0.7059892081
 20
-0.0607766282
 10
-0.7024931836
 20
-0.0906743276
 10
-0.69762268
 20
-0.1204032125
 10
-0.6913872317
 20
-0.1499050871
 10
-0.6837990448
 20
-0.1791222002
 10
-0.6748729736
 20
-0.2079973578
 10
-0.6646264913
 20
-0.2364740355
 10
-0.6530796558
 20
-0.2644964889
 10
-0.6402550706
 20
-0.2920098627
 10
-0.6261778405
 20
-0.3189602981
 10
-0.6108755222
 20
-0.3452950385
 10
-0.5943780708
 20
-0.3709625323
 10
-0.5767177808
 20
-0.3959125341
 10
-0.5579292231
 20
-0.4200962034
 10
-0.5380491772
 20
-0.4434661992
 10
-0.5171165591
 20
-0.4659767738
 10
-0.4951723455
 20
-0.4875838617
 10
-0.4722594932
 20
-0.508245166
 10
-0.4484228551
 20
-0.5279202412
 10
-0.4237090927
 20
-0.5465705724
 10
-0.3981665842
 20
-0.5641596507
 10
-0.3718453303
 20
-0.5806530447
 10
-0.3447968562
 20
-0.5960184678
 10
-0.3170741104
 20
-0.6102258414
 10
-0.2887313615
 20
-0.623247354
 10
-0.2598240919
 20
-0.6350575153
 10
-0.2304088888
 20
-0.6456332064
 10
-0.2005433339
 20
-0.6549537248
 10
-0.1702858904
 20
-0.6630008253
 10
-0.1396957887
 20
-0.6697587552
 10
-0.1088329103
 20
-0.6752142855
 10
-0.0777576708
 20
-0.6793567369
 10
-0.0465309014
 20
-0.6821780003
 10
-0.01521373
 20
-0.6836725528
 10
0.0161325386
 20
-0.6838374689
 10
0.0474465425
 20
-0.6826724258
 10
0.0786669833
 20
-0.680179704
 10
0.1097327453
 20
-0.6763641832
 10
0.1405830159
 20
-0.6712333324
 10
0.1711574043
 20
-0.6647971955
 10
0.2013960596
 20
-0.6570683716
 10
0.2312397882
 20
-0.6480619902
 10
0.2606301697
 20
-0.6377956817
 10
0.289509671
 20
-0.6262895429
 10
0.3178217591
 20
-0.6135660976
 10
0.3455110117
 20
-0.5996502525
 10
0.372523226
 20
-0.5845692485
 10
0.3988055241
 20
-0.5683526075
 10
0.4243064573
 20
-0.5510320743
 10
0.4489761062
 20
-0.5326415546
 10
0.472766179
 20
-0.5132170487
 10
0.4956301053
 20
-0.4927965811
 10
0.517523128
 20
-0.4714201256
 10
0.5384023905
 20
-0.4491295279
 10
0.5582270207
 20
-0.4259684226
 10
0.5769582108
 20
-0.4019821489
 10
0.5945592937
 20
-0.3772176609
 10
0.6109958144
 20
-0.3517234363
 10
0.6262355978
 20
-0.3255493813
 10
0.6402488112
 20
-0.2987467327
 10
0.653008023
 20
-0.2713679581
 10
0.6644882566
 20
-0.2434666526
 10
0.6746670388
 20
-0.2150974345
 10
0.6835244442
 20
-0.1863158376
 10
0.6910431339
 20
-0.1571782035
 10
0.6972083899
 20
-0.1277415703
 10
0.7020081433
 20
-0.0980635617
 10
0.7054329984
 20
-0.0682022738
 10
0.7074762509
 20
-0.0382161614
 10
0.708133901
 20
-0.0081639237
  0
LWPOLYLINE
  5
78
330
1F
100
AcDbEntity
  8
0
  6
Continuous
 62
     7
370
    25
100
AcDbPolyline
 90
       42
 70
   128
 43
0.0
 10
-0.2457473724
 20
-0.5098640412
 10
-0.2464495937
 20
-0.5012168288
 10
-0.2485192099
 20
-0.4927650191
 10
-0.251907711
 20
-0.4847067153
 10
-0.2565356734
 20
-0.4772307974
 10
-0.2622946217
 20
-0.4705124944
 10
-0.2690495709
 20
-0.4647092777
 10
-0.2766421908
 20
-0.4599571698
 10
-0.2848945167
 20
-0.4563675561
 10
-0.2936131213
 20
-0.454024574
 10
-0.3025936477
 20
-0.4529831411
 10
-0.3116256
 20
-0.4532676676
 10
-0.3204972769
 20
-0.4548714846
 10
-0.3290007339
 20
-0.4577569999
 10
-0.3369366571
 20
-0.4618565795
 10
-0.3441190353
 20
-0.4670741327
 10
-0.3503795194
 20
-0.4732873644
 10
-0.3555713692
 20
-0.4803506419
 10
-0.359572892
 20
-0.4880984078
 10
-0.3622902955
 20
-0.4963490611
 10
-0.3636598862
 20
-0.5049092135
 10
-0.3636495619
 20
-0.5135782222
 10
-0.3622595647
 20
-0.522152893
 10
-0.3595224749
 20
-0.530432243
 10
-0.3555024475
 20
-0.5382222112
 10
-0.3502937087
 20
-0.5453402073
 10
-0.3440183468
 20
-0.5516193915
 10
-0.336823451
 20
-0.556912585
 10
-0.3288776636
 20
-0.56109572
 10
-0.320367227
 20
-0.5640707473
 10
-0.3114916187
 20
-0.5657679346
 10
-0.3024588755
 20
-0.5661475015
 10
-0.2934807172
 20
-0.5652005512
 10
-0.2847675841
 20
-0.5629492794
 10
-0.2765237048
 20
-0.559446454
 10
-0.2689423089
 20
-0.5547741782
 10
-0.2622010977
 20
-0.5490419663
 10
-0.2564580795
 20
-0.5423841764
 10
-0.251847866
 20
-0.5349568615
 10
-0.2484785165
 20
-0.5269341116
 10
-0.2464290057
 20
-0.518503973
 10
-0.2457473724
 20
-0.5098640412
  0
LWPOLYLINE
  5
79
330
1F
100
AcDbEntity
  8
0
  6
Continuous
 62
     7
370
    25
100
AcDbPolyline
 90
       42
 70
   128
 43
0.0
 10
0.3643356633
 20
-0.5130737543
 10
0.3636334421
 20
-0.5044265419
 10
0.3615638259
 20
-0.4959747322
 10
0.3581753248
 20
-0.4879164285
 10
0.3535473623
 20
-0.4804405105
 10
0.3477884141
 20
-0.4737222075
 10
0.3410334648
 20
-0.4679189908
 10
0.333440845
 20
-0.4631668829
 10
0.325188519
 20
-0.4595772692
 10
0.3164699145
 20
-0.4572342871
 10
0.3074893881
 20
-0.4561928542
 10
0.2984574358
 20
-0.4564773808
 10
0.2895857588
 20
-0.4580811977
 10
0.2810823018
 20
-0.460966713
 10
0.2731463786
 20
-0.4650662926
 10
0.2659640005
 20
-0.4702838458
 10
0.2597035163
 20
-0.4764970776
 10
0.2545116666
 20
-0.483560355
 10
0.2505101437
 20
-0.4913081209
 10
0.2477927402
 20
-0.4995587742
 10
0.2464231495
 20
-0.5081189266
 10
0.2464334738
 20
-0.5167879353
 10
0.2478234711
 20
-0.5253626062
 10
0.2505605609
 20
-0.5336419562
 10
0.2545805882
 20
-0.5414319243
 10
0.259789327
 20
-0.5485499204
 10
0.2660646889
 20
-0.5548291046
 10
0.2732595847
 20
-0.5601222982
 10
0.2812053722
 20
-0.5643054332
 10
0.2897158087
 20
-0.5672804604
 10
0.298591417
 20
-0.5689776478
 10
0.3076241602
 20
-0.5693572147
 10
0.3166023186
 20
-0.5684102644
 10
0.3253154516
 20
-0.5661589925
 10
0.3335593309
 20
-0.5626561671
 10
0.3411407269
 20
-0.5579838914
 10
0.3478819381
 20
-0.5522516794
 10
0.3536249562
 20
-0.5455938896
 10
0.3582351698
 20
-0.5381665747
 10
0.3616045193
 20
-0.5301438247
 10
0.3636540301
 20
-0.5217136862
 10
0.3643356633
 20
-0.5130737543
  0
LWPOLYLINE
  5
7A
330
1F
100
AcDbEntity
  8
0
  6
Continuous
 62
     7
370
    25
100
AcDbPolyline
 90
       42
 70
   128
 43
0.0
 10
0.6687737051
 20
-0.0079568454
 10
0.6680714839
 20
0.000690367
 10
0.6660018677
 20
0.0091421767
 10
0.6626133666
 20
0.0172004804
 10
0.6579854042
 20
0.0246763984
 10
0.6522264559
 20
0.0313947014
 10
0.6454715067
 20
0.0371979181
 10
0.6378788868
 20
0.041950026
 10
0.6296265608
 20
0.0455396397
 10
0.6209079563
 20
0.0478826218
 10
0.6119274299
 20
0.0489240547
 10
0.6028954776
 20
0.0486395281
 10
0.5940238006
 20
0.0470357112
 10
0.5855203436
 20
0.0441501959
 10
0.5775844204
 20
0.0400506163
 10
0.5704020423
 20
0.0348330631
 10
0.5641415581
 20
0.0286198313
 10
0.5589497084
 20
0.0215565539
 10
0.5549481856
 20
0.013808788
 10
0.552230782
 20
0.0055581347
 10
0.5508611914
 20
-0.0030020177
 10
0.5508715157
 20
-0.0116710264
 10
0.5522615129
 20
-0.0202456973
 10
0.5549986027
 20
-0.0285250473
 10
0.55901863
 20
-0.0363150154
 10
0.5642273689
 20
-0.0434330115
 10
0.5705027308
 20
-0.0497121957
 10
0.5776976266
 20
-0.0550053893
 10
0.585643414
 20
-0.0591885243
 10
0.5941538506
 20
-0.0621635515
 10
0.6030294588
 20
-0.0638607389
 10
0.6120622021
 20
-0.0642403058
 10
0.6210403604
 20
-0.0632933555
 10
0.6297534934
 20
-0.0610420836
 10
0.6379973727
 20
-0.0575392582
 10
0.6455787687
 20
-0.0528669825
 10
0.6523199799
 20
-0.0471347705
 10
0.658062998
 20
-0.0404769807
 10
0.6626732116
 20
-0.0330496658
 10
0.6660425611
 20
-0.0250269158
 10
0.6680920719
 20
-0.0165967773
 10
0.6687737051
 20
-0.0079568454
  0
LWPOLYLINE
  5
7B
330
1F
100
AcDbEntity
  8
0
  6
Continuous
 62
     7
370
    25
100
AcDbPolyline
 90
       42
 70
   128
 43
0.0
 10
0.3631287112
 20
0.5003697766
 10
0.36242649
 20
0.509016989
 10
0.3603568738
 20
0.5174687988
 10
0.3569683727
 20
0.5255271025
 10
0.3523404102
 20
0.5330030204
 10
0.346581462
 20
0.5397213234
 10
0.3398265128
 20
0.5455245401
 10
0.3322338929
 20
0.550276648
 10
0.3239815669
 20
0.5538662618
 10
0.3152629624
 20
0.5562092438
 10
0.306282436
 20
0.5572506768
 10
0.2972504837
 20
0.5569661502
 10
0.2883788067
 20
0.5553623332
 10
0.2798753497
 20
0.5524768179
 10
0.2719394265
 20
0.5483772383
 10
0.2647570484
 20
0.5431596851
 10
0.2584965642
 20
0.5369464534
 10
0.2533047145
 20
0.5298831759
 10
0.2493031917
 20
0.52213541
 10
0.2465857881
 20
0.5138847567
 10
0.2452161975
 20
0.5053246044
 10
0.2452265218
 20
0.4966555956
 10
0.246616519
 20
0.4880809248
 10
0.2493536088
 20
0.4798015748
 10
0.2533736361
 20
0.4720116066
 10
0.258582375
 20
0.4648936105
 10
0.2648577369
 20
0.4586144263
 10
0.2720526327
 20
0.4533212328
 10
0.2799984201
 20
0.4491380978
 10
0.2885088567
 20
0.4461630705
 10
0.2973844649
 20
0.4444658832
 10
0.3064172082
 20
0.4440863163
 10
0.3153953665
 20
0.4450332666
 10
0.3241084995
 20
0.4472845384
 10
0.3323523788
 20
0.4507873638
 10
0.3399337748
 20
0.4554596396
 10
0.346674986
 20
0.4611918515
 10
0.3524180041
 20
0.4678496414
 10
0.3570282177
 20
0.4752769563
 10
0.3603975672
 20
0.4832997062
 10
0.362447078
 20
0.4917298448
 10
0.3631287112
 20
0.5003697766
  0
LWPOLYLINE
  5
7C
330
1F
100
AcDbEntity
  8
0
  6
Continuous
 62
     7
370
    25
100
AcDbPolyline
 90
       42
 70
   128
 43
0.0
 10
-0.2469543245
 20
0.5035794897
 10
-0.2476565457
 20
0.5122267022
 10
-0.2497261619
 20
0.5206785119
 10
-0.253114663
 20
0.5287368156
 10
-0.2577426255
 20
0.5362127336
 10
-0.2635015737
 20
0.5429310366
 10
-0.270256523
 20
0.5487342532
 10
-0.2778491428
 20
0.5534863611
 10
-0.2861014688
 20
0.5570759749
 10
-0.2948200733
 20
0.559418957
 10
-0.3038005997
 20
0.5604603899
 10
-0.3128325521
 20
0.5601758633
 10
-0.321704229
 20
0.5585720463
 10
-0.330207686
 20
0.555686531
 10
-0.3381436092
 20
0.5515869515
 10
-0.3453259873
 20
0.5463693983
 10
-0.3515864715
 20
0.5401561665
 10
-0.3567783213
 20
0.5330928891
 10
-0.3607798441
 20
0.5253451232
 10
-0.3634972476
 20
0.5170944699
 10
-0.3648668383
 20
0.5085343175
 10
-0.364856514
 20
0.4998653088
 10
-0.3634665168
 20
0.4912906379
 10
-0.3607294269
 20
0.4830112879
 10
-0.3567093996
 20
0.4752213198
 10
-0.3515006608
 20
0.4681033237
 10
-0.3452252989
 20
0.4618241395
 10
-0.3380304031
 20
0.4565309459
 10
-0.3300846156
 20
0.4523478109
 10
-0.3215741791
 20
0.4493727837
 10
-0.3126985708
 20
0.4476755963
 10
-0.3036658276
 20
0.4472960294
 10
-0.2946876692
 20
0.4482429797
 10
-0.2859745362
 20
0.4504942515
 10
-0.2777306569
 20
0.453997077
 10
-0.2701492609
 20
0.4586693527
 10
-0.2634080497
 20
0.4644015646
 10
-0.2576650316
 20
0.4710593545
 10
-0.253054818
 20
0.4784866694
 10
-0.2496854685
 20
0.4865094194
 10
-0.2476359578
 20
0.4949395579
 10
-0.2469543245
 20
0.5035794897
  0
LWPOLYLINE
  5
7D
330
1F
100
AcDbEntity
  8
0
  6
Continuous
 62
     7
370
    25
100
AcDbPolyline
 90
       42
 70
   128
 43
0.0
 10
-0.5513923664
 20
-0.0015374192
 10
-0.5520945876
 20
0.0071097933
 10
-0.5541642038
 20
0.015561603
 10
-0.5575527049
 20
0.0236199067
 10
-0.5621806673
 20
0.0310958247
 10
-0.5679396156
 20
0.0378141277
 10
-0.5746945648
 20
0.0436173443
 10
-0.5822871847
 20
0.0483694522
 10
-0.5905395106
 20
0.051959066
 10
-0.5992581152
 20
0.0543020481
 10
-0.6082386416
 20
0.055343481
 10
-0.6172705939
 20
0.0550589544
 10
-0.6261422708
 20
0.0534551374
 10
-0.6346457278
 20
0.0505696221
 10
-0.6425816511
 20
0.0464700426
 10
-0.6497640292
 20
0.0412524894
 10
-0.6560245133
 20
0.0350392576
 10
-0.6612163631
 20
0.0279759802
 10
-0.6652178859
 20
0.0202282143
 10
-0.6679352894
 20
0.011977561
 10
-0.6693048801
 20
0.0034174086
 10
-0.6692945558
 20
-0.0052516001
 10
-0.6679045586
 20
-0.013826271
 10
-0.6651674688
 20
-0.022105621
 10
-0.6611474414
 20
-0.0298955891
 10
-0.6559387026
 20
-0.0370135852
 10
-0.6496633407
 20
-0.0432927694
 10
-0.6424684449
 20
-0.048585963
 10
-0.6345226575
 20
-0.052769098
 10
-0.6260122209
 20
-0.0557441252
 10
-0.6171366126
 20
-0.0574413126
 10
-0.6081038694
 20
-0.0578208795
 10
-0.5991257111
 20
-0.0568739292
 10
-0.590412578
 20
-0.0546226574
 10
-0.5821686987
 20
-0.0511198319
 10
-0.5745873028
 20
-0.0464475562
 10
-0.5678460916
 20
-0.0407153443
 10
-0.5621030734
 20
-0.0340575544
 10
-0.5574928599
 20
-0.0266302395
 10
-0.5541235104
 20
-0.0186074895
 10
-0.5520739996
 20
-0.010177351
 10
-0.5513923664
 20
-0.0015374192
  0
LWPOLYLINE
  5
7E
330
1F
100
AcDbEntity
  8
0
  6
Continuous
 62
     7
370
    25
100
AcDbPolyline
 90
      123
 70
   128
 43
0.0
 10
0.5211729707
 20
-0.0071803019
 10
0.5204508137
 20
0.018571789
 10
0.5183475875
 20
0.0442628661
 10
0.5148688697
 20
0.0698248012
 10
0.510023885
 20
0.0951898087
 10
0.5038254814
 20
0.120290625
 10
0.4962900962
 20
0.1450606874
 10
0.4874377117
 20
0.1694343101
 10
0.4772918028
 20
0.1933468586
 10
0.4658792748
 20
0.2167349211
 10
0.4532303915
 20
0.2395364768
 10
0.4393786956
 20
0.2616910599
 10
0.4243609192
 20
0.2831399206
 10
0.4082168868
 20
0.3038261803
 10
0.3909894095
 20
0.3236949827
 10
0.3727241714
 20
0.3426936393
 10
0.3534696087
 20
0.3607717692
 10
0.3332767809
 20
0.3778814324
 10
0.3121992359
 20
0.3939772571
 10
0.2902928676
 20
0.4090165601
 10
0.2676157675
 20
0.4229594599
 10
0.2442280715
 20
0.4357689824
 10
0.2201917993
 20
0.447411159
 10
0.195570691
 20
0.4578551169
 10
0.1704300371
 20
0.4670731604
 10
0.1448365064
 20
0.4750408451
 10
0.1188579681
 20
0.481737042
 10
0.0925633127
 20
0.487143994
 10
0.0660222689
 20
0.4912473628
 10
0.0393052187
 20
0.4940362672
 10
0.0124830111
 20
0.4955033113
 10
-0.0143732264
 20
0.4956446049
 10
-0.0411922758
 20
0.4944597732
 10
-0.0679030179
 20
0.4919519583
 10
-0.0944346205
 20
0.4881278104
 10
-0.1207167266
 20
0.4829974705
 10
-0.1466796408
 20
0.4765745432
 10
-0.1722545141
 20
0.4688760611
 10
-0.1973735265
 20
0.4599224391
 10
-0.2219700669
 20
0.4497374207
 10
-0.2459789098
 20
0.4383480146
 10
-0.269336388
 20
0.4257844235
 10
-0.2919805616
 20
0.4120799639
 10
-0.3138513824
 20
0.3972709774
 10
-0.3348908529
 20
0.3813967349
 10
-0.3550431803
 20
0.364499332
 10
-0.374254924
 20
0.3466235775
 10
-0.3924751381
 20
0.3278168748
 10
-0.4096555059
 20
0.3081290958
 10
-0.425750468
 20
0.287612449
 10
-0.4407173436
 20
0.2663213408
 10
-0.4545164432
 20
0.2443122315
 10
-0.4671111739
 20
0.2216434853
 10
-0.478468137
 20
0.1983752155
 10
-0.4885572157
 20
0.1745691254
 10
-0.4973516557
 20
0.1502883446
 10
-0.5048281356
 20
0.1255972613
 10
-0.5109668292
 20
0.1005613518
 10
-0.5157514578
 20
0.0752470068
 10
-0.5191693333
 20
0.0497213554
 10
-0.5212113923
 20
0.0240520871
 10
-0.5218722195
 20
-0.0016927279
 10
-0.5211500625
 20
-0.0274448188
 10
-0.5190468363
 20
-0.0531358959
 10
-0.5155681185
 20
-0.078697831
 10
-0.5107231338
 20
-0.1040628385
 10
-0.5045247302
 20
-0.1291636548
 10
-0.496989345
 20
-0.1539337172
 10
-0.4881369605
 20
-0.1783073399
 10
-0.4779910516
 20
-0.2022198884
 10
-0.4665785236
 20
-0.2256079509
 10
-0.4539296403
 20
-0.2484095066
 10
-0.4400779444
 20
-0.2705640897
 10
-0.425060168
 20
-0.2920129504
 10
-0.4089161356
 20
-0.3126992101
 10
-0.3916886583
 20
-0.3325680125
 10
-0.3734234202
 20
-0.3515666691
 10
-0.3541688575
 20
-0.369644799
 10
-0.3339760297
 20
-0.3867544622
 10
-0.3128984847
 20
-0.4028502869
 10
-0.2909921163
 20
-0.4178895899
 10
-0.2683150163
 20
-0.4318324897
 10
-0.2449273203
 20
-0.4446420122
 10
-0.2208910481
 20
-0.4562841888
 10
-0.1962699397
 20
-0.4667281467
 10
-0.1711292859
 20
-0.4759461902
 10
-0.1455357552
 20
-0.4839138749
 10
-0.1195572169
 20
-0.4906100718
 10
-0.0932625615
 20
-0.4960170238
 10
-0.0667215177
 20
-0.5001203926
 10
-0.0400044675
 20
-0.502909297
 10
-0.0131822599
 20
-0.5043763411
 10
0.0136739776
 20
-0.5045176347
 10
0.040493027
 20
-0.503332803
 10
0.0672037691
 20
-0.5008249881
 10
0.0937353717
 20
-0.4970008402
 10
0.1200174778
 20
-0.4918705003
 10
0.145980392
 20
-0.485447573
 10
0.1715552653
 20
-0.4777490909
 10
0.1966742777
 20
-0.4687954689
 10
0.2212708181
 20
-0.4586104505
 10
0.245279661
 20
-0.4472210444
 10
0.2686371392
 20
-0.4346574533
 10
0.2912813128
 20
-0.4209529937
 10
0.3131521336
 20
-0.4061440072
 10
0.3341916041
 20
-0.3902697647
 10
0.3543439315
 20
-0.3733723618
 10
0.3735556752
 20
-0.3554966073
 10
0.3917758893
 20
-0.3366899046
 10
0.4089562571
 20
-0.3170021256
 10
0.4250512192
 20
-0.2964854788
 10
0.4400180948
 20
-0.2751943706
 10
0.4538171944
 20
-0.2531852613
 10
0.4664119251
 20
-0.2305165151
 10
0.4777688882
 20
-0.2072482453
 10
0.4878579669
 20
-0.1834421552
 10
0.4966524069
 20
-0.1591613744
 10
0.5041288868
 20
-0.1344702911
 10
0.5102675804
 20
-0.1094343816
 10
0.515052209
 20
-0.0841200366
 10
0.5184700845
 20
-0.0585943852
 10
0.5205121435
 20
-0.0329251169
 10
0.5211729707
 20
-0.0071803019
  0
LWPOLYLINE
  5
81
330
1F
100
AcDbEntity
  8
0
  6
Continuous
 62
     7
370
    25
100
AcDbPolyline
 90
       63
 70
   128
 43
0.0
 10
-0.5202108742
 20
0.0387637521
 10
-0.5208617679
 20
0.028488602
 10
-0.5215225951
 20
0.002743787
 10
-0.5208004381
 20
-0.0230083039
 10
-0.5186972119
 20
-0.048699381
 10
-0.5152184941
 20
-0.0742613161
 10
-0.5103735094
 20
-0.0996263236
 10
-0.5041751058
 20
-0.1247271399
 10
-0.4966397206
 20
-0.1494972023
 10
-0.4877873361
 20
-0.173870825
 10
-0.4776414272
 20
-0.1977833735
 10
-0.4662288992
 20
-0.221171436
 10
-0.4535800159
 20
-0.2439729917
 10
-0.43972832
 20
-0.2661275748
 10
-0.4247105436
 20
-0.2875764355
 10
-0.4085665112
 20
-0.3082626952
 10
-0.3913390339
 20
-0.3281314976
 10
-0.3730737958
 20
-0.3471301542
 10
-0.3538192331
 20
-0.3652082841
 10
-0.3336264053
 20
-0.3823179473
 10
-0.3125488603
 20
-0.398413772
 10
-0.2906424919
 20
-0.413453075
 10
-0.2679653919
 20
-0.4273959748
 10
-0.2445776959
 20
-0.4402054973
 10
-0.2205414237
 20
-0.4518476739
 10
-0.1959203153
 20
-0.4622916318
 10
-0.1707796615
 20
-0.4715096753
 10
-0.1451861308
 20
-0.47947736
 10
-0.1192075925
 20
-0.4861735569
 10
-0.0929129371
 20
-0.4915805089
 10
-0.0663718933
 20
-0.4956838777
 10
-0.0396548431
 20
-0.4984727821
 10
-0.0128326355
 20
-0.4999398262
 10
0.014023602
 20
-0.5000811198
 10
0.0408426514
 20
-0.4988962881
 10
0.0675533935
 20
-0.4963884732
 10
0.0940849961
 20
-0.4925643253
 10
0.1203671022
 20
-0.4874339854
 10
0.1463300164
 20
-0.4810110581
 10
0.1719048897
 20
-0.473312576
 10
0.1970239021
 20
-0.464358954
 10
0.2216204425
 20
-0.4541739356
 10
0.2456292854
 20
-0.4427845295
 10
0.2689867636
 20
-0.4302209384
 10
0.2916309372
 20
-0.4165164788
 10
0.313501758
 20
-0.4017074923
 10
0.3345412285
 20
-0.3858332498
 10
0.3546935559
 20
-0.3689358469
 10
0.3739052996
 20
-0.3510600924
 10
0.3921255137
 20
-0.3322533897
 10
0.4093058815
 20
-0.3125656107
 10
0.4254008436
 20
-0.2920489639
 10
0.4403677192
 20
-0.2707578557
 10
0.4541668188
 20
-0.2487487464
 10
0.4667615495
 20
-0.2260800002
 10
0.4781185126
 20
-0.2028117304
 10
0.4882075913
 20
-0.1790056403
 10
0.4970020313
 20
-0.1547248595
 10
0.5044785112
 20
-0.1300337762
 10
0.5106172048
 20
-0.1049978667
 10
0.5154018334
 20
-0.0796835217
 10
0.5188197089
 20
-0.0541578703
 10
0.5198612498
 20
-0.043200267
  0
LINE
  5
86
330
1F
100
AcDbEntity
  8
0
  6
Continuous
 62
     7
370
    25
100
AcDbLine
 10
-0.7064710788
 20
0.0556742246
 30
0.0
 11
-0.7068207032
 21
0.0512377097
 31
0.0
  0
LINE
  5
87
330
1F
100
AcDbEntity
  8
0
  6
Continuous
 62
     7
370
    25
100
AcDbLine
 10
0.7061214544
 20
-0.0601107395
 30
0.0
 11
0.7064710788
 21
-0.0556742246
 31
0.0
  0
ARC
  5
88
330
1F
100
AcDbEntity
  8
0
  6
Continuous
 62
     7
370
    25
100
AcDbCircle
 10
0.304597775
 20
0.5071438223
 30
0.0
 40
0.0591629279181121
100
AcDbArc
 50
179.6215671603
 51
351.3665449517
  0
ARC
  5
89
330
1F
100
AcDbEntity
  8
0
  6
Continuous
 62
     7
370
    25
100
AcDbCircle
 10
-0.3054852608
 20
0.5103535355
 30
0.0
 40
0.0591629279181271
100
AcDbArc
 50
179.621567161
 51
351.3665449515
  0
ARC
  5
8A
330
1F
100
AcDbEntity
  8
0
  6
Continuous
 62
     7
370
    25
100
AcDbCircle
 10
0.6102427689
 20
-0.0011827997
 30
0.0
 40
0.0591629279180433
100
AcDbArc
 50
179.6215671587
 51
351.3665449542
  0
ARC
  5
8B
330
1F
100
AcDbEntity
  8
0
  6
Continuous
 62
     7
370
    25
100
AcDbCircle
 10
-0.6099233026
 20
0.0052366266
 30
0.0
 40
0.0591629279180045
100
AcDbArc
 50
179.6215671566
 51
351.3665449544
  0
ARC
  5
8C
330
1F
100
AcDbEntity
  8
0
  6
Continuous
 62
     7
370
    25
100
AcDbCircle
 10
0.305804727
 20
-0.5062997086
 30
0.0
 40
0.0591629279180939
100
AcDbArc
 50
179.62156716
 51
351.3665449525
  0
ARC
  5
8D
330
1F
100
AcDbEntity
  8
0
  6
Continuous
 62
     7
370
    25
100
AcDbCircle
 10
-0.3042783087
 20
-0.5030899955
 30
0.0
 40
0.0591629279180962
100
AcDbArc
 50
179.6215671598
 51
351.3665449521
  0
MTEXT
  5
8F
330
1F
100
AcDbEntity
  8
0
  6
Continuous
 62
     7
100
AcDbMText
 10
-0.7088331498
 20
-0.7239778781
 30
0.0
 40
0.1903
 41
0.0
 71
     1
 72
     1
  1
SOLIDWORKS Educational Product.
  7
SLDTEXTSTYLE0
 73
     1
 44
1.0
  0
MTEXT
  5
90
330
1F
100
AcDbEntity
  8
0
  6
Continuous
 62
     7
100
AcDbMText
 10
-0.7088331498
 20
-1.0094278781
 30
0.0
 40
0.1903
 41
0.0
 71
     1
 72
     1
  1
For Instructional Use Only.
  7
SLDTEXTSTYLE0
 73
     1
 44
1.0
  0
ENDSEC
  0
SECTION
  2
OBJECTS
  0
DICTIONARY
  5
C
330
0
100
AcDbDictionary
281
     1
  3
ACAD_GROUP
350
D
  3
ACAD_LAYOUT
350
1A
  3
ACAD_MLINESTYLE
350
17
  3
ACAD_PLOTSETTINGS
350
19
  3
ACAD_PLOTSTYLENAME
350
E
  3
ACAD_SCALELIST
350
47
  3
DWGPROPS
350
91
  0
DICTIONARY
  5
D
102
{ACAD_REACTORS
330
C
102
}
330
C
100
AcDbDictionary
281
     1
  0
DICTIONARY
  5
1A
102
{ACAD_REACTORS
330
C
102
}
330
C
100
AcDbDictionary
281
     1
  3
Layout1
350
1E
  3
Layout2
350
26
  3
Model
350
22
  0
DICTIONARY
  5
17
102
{ACAD_REACTORS
330
C
102
}
330
C
100
AcDbDictionary
281
     1
  3
Standard
350
18
  0
DICTIONARY
  5
19
102
{ACAD_REACTORS
330
C
102
}
330
C
100
AcDbDictionary
281
     1
  0
ACDBDICTIONARYWDFLT
  5
E
102
{ACAD_REACTORS
330
C
102
}
330
C
100
AcDbDictionary
281
     1
  3
Normal
350
F
100
AcDbDictionaryWithDefault
340
F
  0
DICTIONARY
  5
47
102
{ACAD_REACTORS
330
C
102
}
330
C
100
AcDbDictionary
281
     1
  3
A0
350
48
  3
A1
350
49
  3
A2
350
4A
  3
A3
350
4B
  3
A4
350
4C
  3
A5
350
4D
  3
A6
350
4E
  3
A7
350
4F
  3
A8
350
50
  3
A9
350
51
  3
B0
350
52
  3
B1
350
53
  3
B2
350
54
  3
B3
350
55
  3
B4
350
56
  3
B5
350
57
  3
B6
350
58
  3
B7
350
59
  3
B8
350
5A
  3
B9
350
5B
  3
C0
350
5C
  3
C1
350
5D
  3
C2
350
5E
  3
C3
350
5F
  3
C4
350
60
  3
C5
350
61
  3
C6
350
62
  3
C7
350
63
  3
C8
350
64
  3
C9
350
65
  3
D0
350
66
  3
D1
350
67
  3
D2
350
68
  0
XRECORD
  5
91
102
{ACAD_REACTORS
330
C
102
}
330
C
100
AcDbXrecord
280
     1
  1
DWGPROPS COOKIE
  2

  3

  4

  6

  7

  8
conno
  9

300
=
301
=
302
=
303
=
304
=
305
=
306
=
307
=
308
=
309
=
 40
0.0
 41
2459342.603006401
 42
2459342.603033854
  1

 90
        0
  0
LAYOUT
  5
1E
102
{ACAD_REACTORS
330
1A
102
}
330
1A
100
AcDbPlotSettings
  1

  2
none_device
  4

  6

 40
0.0
 41
0.0
 42
0.0
 43
0.0
 44
0.0
 45
0.0
 46
0.0
 47
0.0
 48
0.0
 49
0.0
140
0.0
141
0.0
142
1.0
143
1.0
 70
   688
 72
     0
 73
     0
 74
     5
  7

 75
    16
147
1.0
148
0.0
149
0.0
100
AcDbLayout
  1
Layout1
 70
     1
 71
     1
 10
0.0
 20
0.0
 11
12.0
 21
9.0
 12
0.0
 22
0.0
 32
0.0
 14
1.0000000000E+20
 24
1.0000000000E+20
 34
1.0000000000E+20
 15
-1.0000000000E+20
 25
-1.0000000000E+20
 35
-1.0000000000E+20
146
0.0
 13
0.0
 23
0.0
 33
0.0
 16
1.0
 26
0.0
 36
0.0
 17
0.0
 27
1.0
 37
0.0
 76
     0
330
1B
  0
LAYOUT
  5
26
102
{ACAD_REACTORS
330
1A
102
}
330
1A
100
AcDbPlotSettings
  1

  2
none_device
  4

  6

 40
0.0
 41
0.0
 42
0.0
 43
0.0
 44
0.0
 45
0.0
 46
0.0
 47
0.0
 48
0.0
 49
0.0
140
0.0
141
0.0
142
1.0
143
1.0
 70
   688
 72
     0
 73
     0
 74
     5
  7

 75
    16
147
1.0
148
0.0
149
0.0
100
AcDbLayout
  1
Layout2
 70
     1
 71
     2
 10
0.0
 20
0.0
 11
0.0
 21
0.0
 12
0.0
 22
0.0
 32
0.0
 14
0.0
 24
0.0
 34
0.0
 15
0.0
 25
0.0
 35
0.0
146
0.0
 13
0.0
 23
0.0
 33
0.0
 16
1.0
 26
0.0
 36
0.0
 17
0.0
 27
1.0
 37
0.0
 76
     0
330
23
  0
LAYOUT
  5
22
102
{ACAD_REACTORS
330
1A
102
}
330
1A
100
AcDbPlotSettings
  1

  2
none_device
  4
ANSI_A_(11.00_x_8.50_Inches)
  6

 40
6.35
 41
19.05
 42
6.35000508
 43
19.05000254
 44
279.4
 45
215.9
 46
133.377406117
 47
89.2477974404
 48
0.0
 49
0.0
140
0.0
141
0.0
142
6.1728013662
143
1.0
 70
  1696
 72
     0
 73
     0
 74
     0
  7

 75
     0
147
0.5913241897
148
-39.4088153714
149
0.0
100
AcDbLayout
  1
Model
 70
     1
 71
     0
 10
0.0
 20
0.0
 11
12.0
 21
9.0
 12
0.0
 22
0.0
 32
0.0
 14
-0.7088331498
 24
-0.6838374689
 34
0.0
 15
0.7084835254
 25
0.6794009541
 35
0.0
146
0.0
 13
0.0
 23
0.0
 33
0.0
 16
1.0
 26
0.0
 36
0.0
 17
0.0
 27
1.0
 37
0.0
 76
     0
330
1F
331
29
  0
MLINESTYLE
  5
18
102
{ACAD_REACTORS
330
17
102
}
330
17
100
AcDbMlineStyle
  2
Standard
 70
     0
  3

 62
   256
 51
90.0
 52
90.0
 71
     2
 49
0.5
 62
   256
  6
BYLAYER
 49
-0.5
 62
   256
  6
BYLAYER
  0
ACDBPLACEHOLDER
  5
F
102
{ACAD_REACTORS
330
E
102
}
330
E
  0
SCALE
  5
48
102
{ACAD_REACTORS
330
47
102
}
330
47
100
AcDbScale
 70
     0
300
1:1
140
1.0
141
1.0
290
     1
  0
SCALE
  5
49
102
{ACAD_REACTORS
330
47
102
}
330
47
100
AcDbScale
 70
     0
300
1:2
140
1.0
141
2.0
290
     0
  0
SCALE
  5
4A
102
{ACAD_REACTORS
330
47
102
}
330
47
100
AcDbScale
 70
     0
300
1:4
140
1.0
141
4.0
290
     0
  0
SCALE
  5
4B
102
{ACAD_REACTORS
330
47
102
}
330
47
100
AcDbScale
 70
     0
300
1:5
140
1.0
141
5.0
290
     0
  0
SCALE
  5
4C
102
{ACAD_REACTORS
330
47
102
}
330
47
100
AcDbScale
 70
     0
300
1:8
140
1.0
141
8.0
290
     0
  0
SCALE
  5
4D
102
{ACAD_REACTORS
330
47
102
}
330
47
100
AcDbScale
 70
     0
300
1:10
140
1.0
141
10.0
290
     0
  0
SCALE
  5
4E
102
{ACAD_REACTORS
330
47
102
}
330
47
100
AcDbScale
 70
     0
300
1:16
140
1.0
141
16.0
290
     0
  0
SCALE
  5
4F
102
{ACAD_REACTORS
330
47
102
}
330
47
100
AcDbScale
 70
     0
300
1:20
140
1.0
141
20.0
290
     0
  0
SCALE
  5
50
102
{ACAD_REACTORS
330
47
102
}
330
47
100
AcDbScale
 70
     0
300
1:30
140
1.0
141
30.0
290
     0
  0
SCALE
  5
51
102
{ACAD_REACTORS
330
47
102
}
330
47
100
AcDbScale
 70
     0
300
1:40
140
1.0
141
40.0
290
     0
  0
SCALE
  5
52
102
{ACAD_REACTORS
330
47
102
}
330
47
100
AcDbScale
 70
     0
300
1:50
140
1.0
141
50.0
290
     0
  0
SCALE
  5
53
102
{ACAD_REACTORS
330
47
102
}
330
47
100
AcDbScale
 70
     0
300
1:100
140
1.0
141
100.0
290
     0
  0
SCALE
  5
54
102
{ACAD_REACTORS
330
47
102
}
330
47
100
AcDbScale
 70
     0
300
2:1
140
2.0
141
1.0
290
     0
  0
SCALE
  5
55
102
{ACAD_REACTORS
330
47
102
}
330
47
100
AcDbScale
 70
     0
300
4:1
140
4.0
141
1.0
290
     0
  0
SCALE
  5
56
102
{ACAD_REACTORS
330
47
102
}
330
47
100
AcDbScale
 70
     0
300
8:1
140
8.0
141
1.0
290
     0
  0
SCALE
  5
57
102
{ACAD_REACTORS
330
47
102
}
330
47
100
AcDbScale
 70
     0
300
10:1
140
10.0
141
1.0
290
     0
  0
SCALE
  5
58
102
{ACAD_REACTORS
330
47
102
}
330
47
100
AcDbScale
 70
     0
300
100:1
140
100.0
141
1.0
290
     0
  0
SCALE
  5
59
102
{ACAD_REACTORS
330
47
102
}
330
47
100
AcDbScale
 70
     0
300
1/128" = 1'-0"
140
0.0078125
141
12.0
290
     0
  0
SCALE
  5
5A
102
{ACAD_REACTORS
330
47
102
}
330
47
100
AcDbScale
 70
     0
300
1/64" = 1'-0"
140
0.015625
141
12.0
290
     0
  0
SCALE
  5
5B
102
{ACAD_REACTORS
330
47
102
}
330
47
100
AcDbScale
 70
     0
300
1/32" = 1'-0"
140
0.03125
141
12.0
290
     0
  0
SCALE
  5
5C
102
{ACAD_REACTORS
330
47
102
}
330
47
100
AcDbScale
 70
     0
300
1/16" = 1'-0"
140
0.0625
141
12.0
290
     0
  0
SCALE
  5
5D
102
{ACAD_REACTORS
330
47
102
}
330
47
100
AcDbScale
 70
     0
300
3/32" = 1'-0"
140
0.09375
141
12.0
290
     0
  0
SCALE
  5
5E
102
{ACAD_REACTORS
330
47
102
}
330
47
100
AcDbScale
 70
     0
300
1/8" = 1'-0"
140
0.125
141
12.0
290
     0
  0
SCALE
  5
5F
102
{ACAD_REACTORS
330
47
102
}
330
47
100
AcDbScale
 70
     0
300
3/16" = 1'-0"
140
0.1875
141
12.0
290
     0
  0
SCALE
  5
60
102
{ACAD_REACTORS
330
47
102
}
330
47
100
AcDbScale
 70
     0
300
1/4" = 1'-0"
140
0.25
141
12.0
290
     0
  0
SCALE
  5
61
102
{ACAD_REACTORS
330
47
102
}
330
47
100
AcDbScale
 70
     0
300
3/8" = 1'-0"
140
0.375
141
12.0
290
     0
  0
SCALE
  5
62
102
{ACAD_REACTORS
330
47
102
}
330
47
100
AcDbScale
 70
     0
300
1/2" = 1'-0"
140
0.5
141
12.0
290
     0
  0
SCALE
  5
63
102
{ACAD_REACTORS
330
47
102
}
330
47
100
AcDbScale
 70
     0
300
3/4" = 1'-0"
140
0.75
141
12.0
290
     0
  0
SCALE
  5
64
102
{ACAD_REACTORS
330
47
102
}
330
47
100
AcDbScale
 70
     0
300
1" = 1'-0"
140
1.0
141
12.0
290
     0
  0
SCALE
  5
65
102
{ACAD_REACTORS
330
47
102
}
330
47
100
AcDbScale
 70
     0
300
1-1/2" = 1'-0"
140
1.5
141
12.0
290
     0
  0
SCALE
  5
66
102
{ACAD_REACTORS
330
47
102
}
330
47
100
AcDbScale
 70
     0
300
3" = 1'-0"
140
3.0
141
12.0
290
     0
  0
SCALE
  5
67
102
{ACAD_REACTORS
330
47
102
}
330
47
100
AcDbScale
 70
     0
300
6" = 1'-0"
140
6.0
141
12.0
290
     0
  0
SCALE
  5
68
102
{ACAD_REACTORS
330
47
102
}
330
47
100
AcDbScale
 70
     0
300
1'-0" = 1'-0"
140
12.0
141
12.0
290
     0
  0
ENDSEC
  0
EOF
